# xmcd
#
# Track frame offsets: 
#        150
#        16392
#        33377
#        53187
#        68315
#        83490
#        97472
#        112685
#        125680
#        140900
#        153847
#        167245
#        182052
#        198312
#
# Disc length: 2867 seconds
#
# Revision: 1
# Processed by: cddbd v1.5.2PL0 Copyright (c) Steve Scherf et al.
# Submitted via: ExactAudioCopyFreeDBPlugin 1.0
#
DISCID=b80b310e
DTITLE=榊原郁恵 - 榊原郁恵ベスト_女友達代表・もうひとりの女友達代表
DYEAR=1990
DGENRE=Blues
TTITLE0=女友達代表
TTITLE1=もうひとりの女友達代表
TTITLE2=雨音に口つ?けを
TTITLE3=太陽のハ?カンス
TTITLE4=Robot(ロホ?ット)
TTITLE5=風を見つめて
TTITLE6=Do It Bang Bang
TTITLE7=夏のお嬢さん
TTITLE8=いとしのロヒ?ン・フットさま
TTITLE9=アルハ?シーノ+アラン・ト?ロン＜あなた
TTITLE10=ハ?ス通学
TTITLE11=私の先生
TTITLE12=女友達代表(オリジナル・カラオケ)
TTITLE13=もうひとりの女友達代表(オリジナル・カラオケ)
EXTD=YEAR: 1990
EXTT0=
EXTT1=
EXTT2=
EXTT3=
EXTT4=
EXTT5=
EXTT6=
EXTT7=
EXTT8=
EXTT9=
EXTT10=
EXTT11=
EXTT12=
EXTT13=
PLAYORDER=
